<svg xmlns="http://www.w3.org/2000/svg" width="1200" height="630" viewBox="0 0 1200 630"><defs><linearGradient id="b" x1="0" y1="0" x2="1" y2="1"><stop offset="0" stop-color="#2a231d"/><stop offset="1" stop-color="#161210"/></linearGradient><linearGradient id="o" x1="0" y1="0" x2="1" y2="1"><stop offset="0" stop-color="#ff9d4d"/><stop offset="1" stop-color="#cf4708"/></linearGradient></defs><rect width="1200" height="630" fill="url(#b)"/><circle cx="1000" cy="120" r="300" fill="url(#o)" opacity="0.14"/><g transform="translate(980,360)"><path d="M-150 20 C -60 -10 20 40 110 10 S 200 0 210 16 L210 130 L-150 130 Z" fill="#8db9d4"/><path d="M-150 56 C -60 30 40 78 130 48 S 210 44 210 56 L210 130 L-150 130 Z" fill="#5f97bd"/></g><rect x="80" y="250" width="64" height="64" rx="16" fill="url(#o)"/><text x="170" y="298" font-family="Pretendard, sans-serif" font-size="44" font-weight="800" fill="#fff">Bun 마사지</text><text x="80" y="400" font-family="Pretendard, sans-serif" font-size="60" font-weight="800" fill="#fff">인천 출장마사지</text><text x="80" y="470" font-family="Pretendard, sans-serif" font-size="38" font-weight="600" fill="#c2a062">구군별 방문 가능 지역 안내</text><text x="80" y="545" font-family="Pretendard, sans-serif" font-size="32" fill="#c5bcae">전화예약 0508-202-4719</text></svg>