<svg xmlns="http://www.w3.org/2000/svg" width="1200" height="630" viewBox="0 0 1200 630"><defs><linearGradient id="b" x1="0" y1="0" x2="1" y2="1"><stop offset="0" stop-color="#2a231d"/><stop offset="1" stop-color="#161210"/></linearGradient><linearGradient id="o" x1="0" y1="0" x2="1" y2="1"><stop offset="0" stop-color="#ff9d4d"/><stop offset="1" stop-color="#cf4708"/></linearGradient><linearGradient id="s" x1="0" y1="0" x2="0" y2="1"><stop offset="0" stop-color="#b29c86"/><stop offset="1" stop-color="#6f5f51"/></linearGradient></defs><rect width="1200" height="630" fill="url(#b)"/><circle cx="1000" cy="120" r="300" fill="url(#o)" opacity="0.16"/><g transform="translate(980,330)"><ellipse cx="0" cy="120" rx="120" ry="26" fill="url(#s)"/><ellipse cx="0" cy="70" rx="96" ry="22" fill="url(#s)"/><ellipse cx="0" cy="28" rx="72" ry="18" fill="url(#s)"/><ellipse cx="0" cy="-6" rx="48" ry="14" fill="url(#s)"/><path d="M0 -20 C18 -34 28 -54 28 -70 C12 -64 2 -44 0 -20 Z" fill="#9aa861"/></g><rect x="80" y="250" width="64" height="64" rx="16" fill="url(#o)"/><text x="170" y="298" font-family="Pretendard, sans-serif" font-size="44" font-weight="800" fill="#fff">Bun 마사지</text><text x="80" y="400" font-family="Pretendard, sans-serif" font-size="60" font-weight="800" fill="#fff">서울 출장마사지</text><text x="80" y="470" font-family="Pretendard, sans-serif" font-size="38" font-weight="600" fill="#c2a062">생활권별 방문 가능 지역 안내</text><text x="80" y="545" font-family="Pretendard, sans-serif" font-size="32" fill="#c5bcae">전화예약 0508-202-4719</text></svg>